<svg xmlns="http://www.w3.org/2000/svg" viewBox="0 0 374 100" width="374" height="100">
  
  <g>
    <rect x="3" y="3" width="94" height="94" rx="22" ry="22" fill="#0A0D13" stroke="#DCE2EE" stroke-width="3"></rect>
    <line x1="14" y1="52" x2="86" y2="52" stroke="#DCE2EE" stroke-opacity="0.18" stroke-width="0.8" stroke-dasharray="2 2"></line>
    <circle cx="22" cy="40" r="3.4" fill="none" stroke="#DCE2EE" stroke-width="1.6"></circle>
    <circle cx="33" cy="40" r="3.4" fill="none" stroke="#DCE2EE" stroke-width="1.6"></circle>
    <circle cx="44" cy="40" r="4.0" fill="none" stroke="#DCE2EE" stroke-width="2.0"></circle>
    <circle cx="55" cy="40" r="3.4" fill="none" stroke="#DCE2EE" stroke-width="1.6"></circle>
    <circle cx="66" cy="40" r="3.4" fill="none" stroke="#DCE2EE" stroke-width="1.6"></circle>
    <g stroke="#5EA6EA" stroke-width="2.4" stroke-linecap="round">
      <line x1="46" y1="56" x2="54" y2="64"></line><line x1="54" y1="56" x2="46" y2="64"></line>
    </g>
    <path d="M 22 36 C 18 26, 14 20, 22 16" fill="none" stroke="#DCE2EE" stroke-width="1.6" stroke-linecap="round"></path>
    <g transform="translate(22 16) rotate(-95)"><path d="M 0 0 L 3.5 2.8 M 0 0 L 3.5 -2.8" stroke="#DCE2EE" stroke-width="1.6" stroke-linecap="round" fill="none"></path></g>
    <path d="M 66 36 C 70 26, 74 20, 78 16" fill="none" stroke="#DCE2EE" stroke-width="1.6" stroke-linecap="round"></path>
    <g transform="translate(78 16) rotate(-75)"><path d="M 0 0 L 3.5 2.8 M 0 0 L 3.5 -2.8" stroke="#DCE2EE" stroke-width="1.6" stroke-linecap="round" fill="none"></path></g>
    <path d="M 52 60 C 50 50, 60 42, 76 36" fill="none" stroke="#5EA6EA" stroke-width="1.6" stroke-linecap="round"></path>
    <g transform="translate(76 36) rotate(-20)"><path d="M 0 0 L 3.5 2.8 M 0 0 L 3.5 -2.8" stroke="#5EA6EA" stroke-width="1.6" stroke-linecap="round" fill="none"></path></g>
  </g>
  <g transform="translate(120 0)">
    <text x="0" y="58" style="font-family:&#39;JetBrains Mono&#39;,&#39;SF Mono&#39;,ui-monospace,Menlo,monospace;font-size:38px;font-weight:700;letter-spacing:0.04em" fill="#DCE2EE">CRITTABLE</text>
    <text x="2" y="80" style="font-family:&#39;JetBrains Mono&#39;,&#39;SF Mono&#39;,ui-monospace,Menlo,monospace;font-size:13px;font-weight:500;letter-spacing:0.18em" fill="#DCE2EE" fill-opacity="0.55">TABLETOP · OPS</text>
  </g>
</svg>