<svg xmlns="http://www.w3.org/2000/svg" viewBox="0 0 100 100" width="512" height="512">
  <rect x="3" y="3" width="94" height="94" rx="22" ry="22" fill="#F6F4ED" stroke="#0A0D13" stroke-width="3"></rect>
  <line x1="14" y1="52" x2="86" y2="52" stroke="#0A0D13" stroke-opacity="0.18" stroke-width="0.8" stroke-dasharray="2 2"></line>
<circle cx="22" cy="40" r="3.4" fill="none" stroke="#0A0D13" stroke-width="1.6"></circle>
<circle cx="33" cy="40" r="3.4" fill="none" stroke="#0A0D13" stroke-width="1.6"></circle>
<circle cx="44" cy="40" r="4" fill="none" stroke="#0A0D13" stroke-width="2"></circle>
<circle cx="55" cy="40" r="3.4" fill="none" stroke="#0A0D13" stroke-width="1.6"></circle>
<circle cx="66" cy="40" r="3.4" fill="none" stroke="#0A0D13" stroke-width="1.6"></circle>
<g stroke="#1F6FBF" stroke-width="2.4" stroke-linecap="round">
        <line x1="46" y1="56" x2="54" y2="64"></line>
        <line x1="54" y1="56" x2="46" y2="64"></line>
      </g>
<path d="M 22 36 C 26 28, 36 24, 44 22" fill="none" stroke="#0A0D13" stroke-width="1.6" stroke-linecap="round"></path>
<g transform="translate(44 22) rotate(-20)">
  <path d="M 0 0 L 3.5 2.8 M 0 0 L 3.5 -2.8" stroke="#0A0D13" stroke-width="1.6" stroke-linecap="round" fill="none"></path>
</g>
<path d="M 66 36 C 62 28, 56 24, 48 22" fill="none" stroke="#0A0D13" stroke-width="1.6" stroke-linecap="round"></path>
<g transform="translate(48 22) rotate(-160)">
  <path d="M 0 0 L 3.5 2.8 M 0 0 L 3.5 -2.8" stroke="#0A0D13" stroke-width="1.6" stroke-linecap="round" fill="none"></path>
</g>
<path d="M 52 58 C 64 52, 60 36, 30 22" fill="none" stroke="#1F6FBF" stroke-width="1.6" stroke-linecap="round"></path>
<g transform="translate(30 22) rotate(-150)">
  <path d="M 0 0 L 3.5 2.8 M 0 0 L 3.5 -2.8" stroke="#1F6FBF" stroke-width="1.6" stroke-linecap="round" fill="none"></path>
</g>
<text x="86" y="90" text-anchor="end" style="font-family:ui-monospace,Menlo,monospace;font-size:7px;fill:#0A0D13;fill-opacity:0.55;letter-spacing:0.1em">CT/06</text>
</svg>