<svg xmlns="http://www.w3.org/2000/svg" viewBox="0 0 100 100" width="512" height="512">
  <rect x="3" y="3" width="94" height="94" rx="22" ry="22" fill="#0A0D13" stroke="#DCE2EE" stroke-width="3"></rect>
  <g opacity="0">
  <circle cx="50" cy="50" r="6" fill="#DCE2EE"></circle>
  
</g>
<g opacity="0">
  <line x1="14" y1="52" x2="86" y2="52" stroke="#DCE2EE" stroke-opacity="0.18" stroke-width="0.8" stroke-dasharray="2 2"></line>
<circle cx="22" cy="40" r="3.4" fill="none" stroke="#DCE2EE" stroke-width="1.6"></circle><circle cx="33" cy="40" r="3.4" fill="none" stroke="#DCE2EE" stroke-width="1.6"></circle><circle cx="44" cy="40" r="4" fill="none" stroke="#DCE2EE" stroke-width="2"></circle><circle cx="55" cy="40" r="3.4" fill="none" stroke="#DCE2EE" stroke-width="1.6"></circle><circle cx="66" cy="40" r="3.4" fill="none" stroke="#DCE2EE" stroke-width="1.6"></circle><g stroke="#5EA6EA" stroke-width="2.4" stroke-linecap="round">
          <line x1="46" y1="56" x2="54" y2="64"></line>
          <line x1="54" y1="56" x2="46" y2="64"></line>
        </g>
<path d="M 22 36 C 18 26, 14 20, 22 16" fill="none" stroke="#DCE2EE" stroke-width="1.6" stroke-linecap="round"></path>
<g transform="translate(22 16) rotate(-95)">
  <path d="M 0 0 L 3.5 2.8 M 0 0 L 3.5 -2.8" stroke="#DCE2EE" stroke-width="1.6" stroke-linecap="round" fill="none"></path>
</g><path d="M 66 36 C 70 26, 74 20, 78 16" fill="none" stroke="#DCE2EE" stroke-width="1.6" stroke-linecap="round"></path>
<g transform="translate(78 16) rotate(-75)">
  <path d="M 0 0 L 3.5 2.8 M 0 0 L 3.5 -2.8" stroke="#DCE2EE" stroke-width="1.6" stroke-linecap="round" fill="none"></path>
</g><path d="M 52 60 C 50 50, 60 42, 76 36" fill="none" stroke="#5EA6EA" stroke-width="1.6" stroke-linecap="round"></path>
<g transform="translate(76 36) rotate(-20)">
  <path d="M 0 0 L 3.5 2.8 M 0 0 L 3.5 -2.8" stroke="#5EA6EA" stroke-width="1.6" stroke-linecap="round" fill="none"></path>
</g>
<text x="86" y="90" text-anchor="end" style="font-family:ui-monospace,Menlo,monospace;font-size:7px;letter-spacing:0.1em" fill="#DCE2EE" fill-opacity="0.55">CT/01</text>
  
</g>
<g opacity="0">
  <circle cx="28" cy="28" r="6" fill="#DCE2EE"></circle><circle cx="72" cy="72" r="6" fill="#DCE2EE"></circle>
  
</g>
<g opacity="0">
  <line x1="14" y1="52" x2="86" y2="52" stroke="#DCE2EE" stroke-opacity="0.18" stroke-width="0.8" stroke-dasharray="2 2"></line>
<circle cx="22" cy="40" r="3.4" fill="none" stroke="#DCE2EE" stroke-width="1.6"></circle><circle cx="33" cy="40" r="3.4" fill="none" stroke="#DCE2EE" stroke-width="1.6"></circle><circle cx="44" cy="40" r="4" fill="none" stroke="#DCE2EE" stroke-width="2"></circle><circle cx="55" cy="40" r="3.4" fill="none" stroke="#DCE2EE" stroke-width="1.6"></circle><circle cx="66" cy="40" r="3.4" fill="none" stroke="#DCE2EE" stroke-width="1.6"></circle><g stroke="#5EA6EA" stroke-width="2.4" stroke-linecap="round">
          <line x1="46" y1="56" x2="54" y2="64"></line>
          <line x1="54" y1="56" x2="46" y2="64"></line>
        </g>
<path d="M 22 44 C 26 54, 30 60, 38 60" fill="none" stroke="#DCE2EE" stroke-width="1.6" stroke-linecap="round"></path>
<g transform="translate(38 60) rotate(0)">
  <path d="M 0 0 L 3.5 2.8 M 0 0 L 3.5 -2.8" stroke="#DCE2EE" stroke-width="1.6" stroke-linecap="round" fill="none"></path>
</g><path d="M 66 44 C 62 54, 58 60, 50 64" fill="none" stroke="#DCE2EE" stroke-width="1.6" stroke-linecap="round"></path>
<g transform="translate(50 64) rotate(170)">
  <path d="M 0 0 L 3.5 2.8 M 0 0 L 3.5 -2.8" stroke="#DCE2EE" stroke-width="1.6" stroke-linecap="round" fill="none"></path>
</g><path d="M 48 60 C 40 56, 30 50, 18 36" fill="none" stroke="#5EA6EA" stroke-width="1.6" stroke-linecap="round"></path>
<g transform="translate(18 36) rotate(-130)">
  <path d="M 0 0 L 3.5 2.8 M 0 0 L 3.5 -2.8" stroke="#5EA6EA" stroke-width="1.6" stroke-linecap="round" fill="none"></path>
</g>
<text x="86" y="90" text-anchor="end" style="font-family:ui-monospace,Menlo,monospace;font-size:7px;letter-spacing:0.1em" fill="#DCE2EE" fill-opacity="0.55">CT/02</text>
  
</g>
<g opacity="0">
  <circle cx="28" cy="28" r="6" fill="#DCE2EE"></circle><circle cx="50" cy="50" r="6" fill="#DCE2EE"></circle><circle cx="72" cy="72" r="6" fill="#DCE2EE"></circle>
  
</g>
<g opacity="0">
  <line x1="14" y1="52" x2="86" y2="52" stroke="#DCE2EE" stroke-opacity="0.18" stroke-width="0.8" stroke-dasharray="2 2"></line>
<circle cx="22" cy="40" r="3.4" fill="none" stroke="#DCE2EE" stroke-width="1.6"></circle><circle cx="33" cy="40" r="3.4" fill="none" stroke="#DCE2EE" stroke-width="1.6"></circle><circle cx="44" cy="40" r="4" fill="none" stroke="#DCE2EE" stroke-width="2"></circle><circle cx="55" cy="40" r="3.4" fill="none" stroke="#DCE2EE" stroke-width="1.6"></circle><circle cx="66" cy="40" r="3.4" fill="none" stroke="#DCE2EE" stroke-width="1.6"></circle><g stroke="#5EA6EA" stroke-width="2.4" stroke-linecap="round">
          <line x1="46" y1="56" x2="54" y2="64"></line>
          <line x1="54" y1="56" x2="46" y2="64"></line>
        </g>
<path d="M 22 36 C 22 28, 22 22, 22 14" fill="none" stroke="#DCE2EE" stroke-width="1.6" stroke-linecap="round"></path>
<g transform="translate(22 14) rotate(-90)">
  <path d="M 0 0 L 3.5 2.8 M 0 0 L 3.5 -2.8" stroke="#DCE2EE" stroke-width="1.6" stroke-linecap="round" fill="none"></path>
</g><path d="M 66 36 C 66 28, 66 22, 66 14" fill="none" stroke="#DCE2EE" stroke-width="1.6" stroke-linecap="round"></path>
<g transform="translate(66 14) rotate(-90)">
  <path d="M 0 0 L 3.5 2.8 M 0 0 L 3.5 -2.8" stroke="#DCE2EE" stroke-width="1.6" stroke-linecap="round" fill="none"></path>
</g><path d="M 54 60 C 64 58, 72 54, 82 50" fill="none" stroke="#5EA6EA" stroke-width="1.6" stroke-linecap="round"></path>
<g transform="translate(82 50) rotate(-10)">
  <path d="M 0 0 L 3.5 2.8 M 0 0 L 3.5 -2.8" stroke="#5EA6EA" stroke-width="1.6" stroke-linecap="round" fill="none"></path>
</g>
<text x="86" y="90" text-anchor="end" style="font-family:ui-monospace,Menlo,monospace;font-size:7px;letter-spacing:0.1em" fill="#DCE2EE" fill-opacity="0.55">CT/03</text>
  
</g>
<g opacity="0">
  <circle cx="28" cy="28" r="6" fill="#DCE2EE"></circle><circle cx="72" cy="28" r="6" fill="#DCE2EE"></circle><circle cx="28" cy="72" r="6" fill="#DCE2EE"></circle><circle cx="72" cy="72" r="6" fill="#DCE2EE"></circle>
  
</g>
<g opacity="0">
  <line x1="14" y1="52" x2="86" y2="52" stroke="#DCE2EE" stroke-opacity="0.18" stroke-width="0.8" stroke-dasharray="2 2"></line>
<circle cx="22" cy="40" r="3.4" fill="none" stroke="#DCE2EE" stroke-width="1.6"></circle><circle cx="33" cy="40" r="3.4" fill="none" stroke="#DCE2EE" stroke-width="1.6"></circle><circle cx="44" cy="40" r="4" fill="none" stroke="#DCE2EE" stroke-width="2"></circle><circle cx="55" cy="40" r="3.4" fill="none" stroke="#DCE2EE" stroke-width="1.6"></circle><circle cx="66" cy="40" r="3.4" fill="none" stroke="#DCE2EE" stroke-width="1.6"></circle><g stroke="#5EA6EA" stroke-width="2.4" stroke-linecap="round">
          <line x1="46" y1="56" x2="54" y2="64"></line>
          <line x1="54" y1="56" x2="46" y2="64"></line>
        </g>
<path d="M 44 36 C 40 30, 32 28, 24 28" fill="none" stroke="#DCE2EE" stroke-width="1.6" stroke-linecap="round"></path>
<g transform="translate(24 28) rotate(180)">
  <path d="M 0 0 L 3.5 2.8 M 0 0 L 3.5 -2.8" stroke="#DCE2EE" stroke-width="1.6" stroke-linecap="round" fill="none"></path>
</g><path d="M 50 56 C 50 42, 50 28, 50 16" fill="none" stroke="#5EA6EA" stroke-width="1.6" stroke-linecap="round"></path>
<g transform="translate(50 16) rotate(-90)">
  <path d="M 0 0 L 3.5 2.8 M 0 0 L 3.5 -2.8" stroke="#5EA6EA" stroke-width="1.6" stroke-linecap="round" fill="none"></path>
</g>
<text x="86" y="90" text-anchor="end" style="font-family:ui-monospace,Menlo,monospace;font-size:7px;letter-spacing:0.1em" fill="#DCE2EE" fill-opacity="0.55">CT/04</text>
  
</g>
<g opacity="0">
  <circle cx="28" cy="28" r="6" fill="#DCE2EE"></circle><circle cx="72" cy="28" r="6" fill="#DCE2EE"></circle><circle cx="50" cy="50" r="6" fill="#DCE2EE"></circle><circle cx="28" cy="72" r="6" fill="#DCE2EE"></circle><circle cx="72" cy="72" r="6" fill="#DCE2EE"></circle>
  
</g>
<g opacity="0">
  <line x1="14" y1="52" x2="86" y2="52" stroke="#DCE2EE" stroke-opacity="0.18" stroke-width="0.8" stroke-dasharray="2 2"></line>
<circle cx="22" cy="40" r="3.4" fill="none" stroke="#DCE2EE" stroke-width="1.6"></circle><circle cx="33" cy="40" r="3.4" fill="none" stroke="#DCE2EE" stroke-width="1.6"></circle><circle cx="44" cy="40" r="4" fill="none" stroke="#DCE2EE" stroke-width="2"></circle><circle cx="55" cy="40" r="3.4" fill="none" stroke="#DCE2EE" stroke-width="1.6"></circle><circle cx="66" cy="40" r="3.4" fill="none" stroke="#DCE2EE" stroke-width="1.6"></circle><g stroke="#5EA6EA" stroke-width="2.4" stroke-linecap="round">
          <line x1="46" y1="56" x2="54" y2="64"></line>
          <line x1="54" y1="56" x2="46" y2="64"></line>
        </g>
<path d="M 55 36 C 60 30, 70 26, 78 24" fill="none" stroke="#DCE2EE" stroke-width="1.6" stroke-linecap="round"></path>
<g transform="translate(78 24) rotate(-65)">
  <path d="M 0 0 L 3.5 2.8 M 0 0 L 3.5 -2.8" stroke="#DCE2EE" stroke-width="1.6" stroke-linecap="round" fill="none"></path>
</g><path d="M 66 36 C 72 32, 80 30, 86 30" fill="none" stroke="#DCE2EE" stroke-width="1.6" stroke-linecap="round"></path>
<g transform="translate(86 30) rotate(-10)">
  <path d="M 0 0 L 3.5 2.8 M 0 0 L 3.5 -2.8" stroke="#DCE2EE" stroke-width="1.6" stroke-linecap="round" fill="none"></path>
</g><path d="M 52 60 C 70 60, 82 50, 84 32" fill="none" stroke="#5EA6EA" stroke-width="1.6" stroke-linecap="round"></path>
<g transform="translate(84 32) rotate(-75)">
  <path d="M 0 0 L 3.5 2.8 M 0 0 L 3.5 -2.8" stroke="#5EA6EA" stroke-width="1.6" stroke-linecap="round" fill="none"></path>
</g>
<text x="86" y="90" text-anchor="end" style="font-family:ui-monospace,Menlo,monospace;font-size:7px;letter-spacing:0.1em" fill="#DCE2EE" fill-opacity="0.55">CT/05</text>
  
</g>
<g opacity="0">
  <circle cx="28" cy="28" r="6" fill="#DCE2EE"></circle><circle cx="72" cy="28" r="6" fill="#DCE2EE"></circle><circle cx="28" cy="50" r="6" fill="#DCE2EE"></circle><circle cx="72" cy="50" r="6" fill="#DCE2EE"></circle><circle cx="28" cy="72" r="6" fill="#DCE2EE"></circle><circle cx="72" cy="72" r="6" fill="#DCE2EE"></circle>
  
</g>
<g opacity="0">
  <line x1="14" y1="52" x2="86" y2="52" stroke="#DCE2EE" stroke-opacity="0.18" stroke-width="0.8" stroke-dasharray="2 2"></line>
<circle cx="22" cy="40" r="3.4" fill="none" stroke="#DCE2EE" stroke-width="1.6"></circle><circle cx="33" cy="40" r="3.4" fill="none" stroke="#DCE2EE" stroke-width="1.6"></circle><circle cx="44" cy="40" r="4" fill="none" stroke="#DCE2EE" stroke-width="2"></circle><circle cx="55" cy="40" r="3.4" fill="none" stroke="#DCE2EE" stroke-width="1.6"></circle><circle cx="66" cy="40" r="3.4" fill="none" stroke="#DCE2EE" stroke-width="1.6"></circle><g stroke="#5EA6EA" stroke-width="2.4" stroke-linecap="round">
          <line x1="46" y1="56" x2="54" y2="64"></line>
          <line x1="54" y1="56" x2="46" y2="64"></line>
        </g>
<path d="M 22 36 C 26 28, 36 24, 44 22" fill="none" stroke="#DCE2EE" stroke-width="1.6" stroke-linecap="round"></path>
<g transform="translate(44 22) rotate(-20)">
  <path d="M 0 0 L 3.5 2.8 M 0 0 L 3.5 -2.8" stroke="#DCE2EE" stroke-width="1.6" stroke-linecap="round" fill="none"></path>
</g><path d="M 66 36 C 62 28, 56 24, 48 22" fill="none" stroke="#DCE2EE" stroke-width="1.6" stroke-linecap="round"></path>
<g transform="translate(48 22) rotate(-160)">
  <path d="M 0 0 L 3.5 2.8 M 0 0 L 3.5 -2.8" stroke="#DCE2EE" stroke-width="1.6" stroke-linecap="round" fill="none"></path>
</g><path d="M 52 58 C 64 52, 60 36, 30 22" fill="none" stroke="#5EA6EA" stroke-width="1.6" stroke-linecap="round"></path>
<g transform="translate(30 22) rotate(-150)">
  <path d="M 0 0 L 3.5 2.8 M 0 0 L 3.5 -2.8" stroke="#5EA6EA" stroke-width="1.6" stroke-linecap="round" fill="none"></path>
</g>
<text x="86" y="90" text-anchor="end" style="font-family:ui-monospace,Menlo,monospace;font-size:7px;letter-spacing:0.1em" fill="#DCE2EE" fill-opacity="0.55">CT/06</text>
  
</g>
</svg>