<svg xmlns="http://www.w3.org/2000/svg" viewBox="0 0 100 100" width="512" height="512">
  <rect x="3" y="3" width="94" height="94" rx="22" ry="22" fill="#0A0D13" stroke="#DCE2EE" stroke-width="3"></rect>
  <line x1="14" y1="52" x2="86" y2="52" stroke="#DCE2EE" stroke-opacity="0.18" stroke-width="0.8" stroke-dasharray="2 2"></line>
<circle cx="22" cy="40" r="3.4" fill="none" stroke="#DCE2EE" stroke-width="1.6"></circle>
<circle cx="33" cy="40" r="3.4" fill="none" stroke="#DCE2EE" stroke-width="1.6"></circle>
<circle cx="44" cy="40" r="4" fill="none" stroke="#DCE2EE" stroke-width="2"></circle>
<circle cx="55" cy="40" r="3.4" fill="none" stroke="#DCE2EE" stroke-width="1.6"></circle>
<circle cx="66" cy="40" r="3.4" fill="none" stroke="#DCE2EE" stroke-width="1.6"></circle>
<g stroke="#5EA6EA" stroke-width="2.4" stroke-linecap="round">
        <line x1="46" y1="56" x2="54" y2="64"></line>
        <line x1="54" y1="56" x2="46" y2="64"></line>
      </g>
<path d="M 22 44 C 26 54, 30 60, 38 60" fill="none" stroke="#DCE2EE" stroke-width="1.6" stroke-linecap="round"></path>
<g transform="translate(38 60) rotate(0)">
  <path d="M 0 0 L 3.5 2.8 M 0 0 L 3.5 -2.8" stroke="#DCE2EE" stroke-width="1.6" stroke-linecap="round" fill="none"></path>
</g>
<path d="M 66 44 C 62 54, 58 60, 50 64" fill="none" stroke="#DCE2EE" stroke-width="1.6" stroke-linecap="round"></path>
<g transform="translate(50 64) rotate(170)">
  <path d="M 0 0 L 3.5 2.8 M 0 0 L 3.5 -2.8" stroke="#DCE2EE" stroke-width="1.6" stroke-linecap="round" fill="none"></path>
</g>
<path d="M 48 60 C 40 56, 30 50, 18 36" fill="none" stroke="#5EA6EA" stroke-width="1.6" stroke-linecap="round"></path>
<g transform="translate(18 36) rotate(-130)">
  <path d="M 0 0 L 3.5 2.8 M 0 0 L 3.5 -2.8" stroke="#5EA6EA" stroke-width="1.6" stroke-linecap="round" fill="none"></path>
</g>
<text x="86" y="90" text-anchor="end" style="font-family:ui-monospace,Menlo,monospace;font-size:7px;fill:#DCE2EE;fill-opacity:0.55;letter-spacing:0.1em">CT/02</text>
</svg>